# xmcd
#
# Track frame offsets: 
#        150
#        4432
#        20150
#        34687
#        48287
#        57805
#        71175
#        85490
#        99027
#        111670
#        125575
#        146625
#        165440
#        180672
#        198177
#        211987
#        229795
#
# Disc length: 3350 seconds
#
# Revision: 4
# Processed by: cddbd v1.5.2PL0 Copyright (c) Steve Scherf et al.
# Submitted via: ExactAudioCopyFreeDBPlugin 1.0
#
DISCID=ef0d1411
DTITLE=Константин Никольский - Константин Никольский - Концерт 1994 (l
DTITLE=ive)
DYEAR=2003
DGENRE=Acoustic
TTITLE0=Intro
TTITLE1=Мой друг художник и поэт
TTITLE2=Я сам из тех...
TTITLE3=Опять до времени отложены дела
TTITLE4=Облако
TTITLE5=Прошедший день
TTITLE6=Когда поймешь умом...
TTITLE7=Пред чертой меж будущим и прошлым
TTITLE8=Цветок у окна
TTITLE9=Один взгляд назад (Ветерок)
TTITLE10=Музыкант
TTITLE11=В музыке моей осадок зла
TTITLE12=Голос
TTITLE13=От любви к любви
TTITLE14=Я бреду по бездорожью
TTITLE15=Птицы белые мои
TTITLE16=Ночная птица
EXTD=YEAR: 2000  ID3G:   0
EXTT0=
EXTT1=
EXTT2=
EXTT3=
EXTT4=
EXTT5=
EXTT6=
EXTT7=
EXTT8=
EXTT9=
EXTT10=
EXTT11=
EXTT12=
EXTT13=
EXTT14=
EXTT15=
EXTT16=
PLAYORDER=
